<svg id="Layer_1" data-name="Layer 1" xmlns="http://www.w3.org/2000/svg" viewBox="0 0 72 80"><defs><style>.cls-1{fill:#17bae5;}.cls-2{fill:#189ed8;}.cls-3{fill:#fff;}.cls-4{fill:#f9b72c;fill-rule:evenodd;}</style></defs><title>Artboard 4</title><path class="cls-1" d="M36,79.67a8,8,0,0,0,3.44-1L67.68,62.94a6.82,6.82,0,0,0,3.51-5.88l.26-17-.23-17a6.86,6.86,0,0,0-3.5-5.88L39.47,1.31A8,8,0,0,0,36,.33Z"/><path class="cls-2" d="M36,.33a8,8,0,0,0-3.44,1L4.32,17.06A6.82,6.82,0,0,0,.81,22.94L.55,40,.78,57a6.86,6.86,0,0,0,3.5,5.88l28.25,15.8a8,8,0,0,0,3.44,1Z"/><path class="cls-3" d="M16.22,32H14v5.74H12.28V32H10.1V30.36h6.12Z"/><path class="cls-3" d="M25,34.05a3.72,3.72,0,0,1-3.89,3.82,3.83,3.83,0,1,1,0-7.65A3.72,3.72,0,0,1,25,34.05Zm-5.94,0a2.06,2.06,0,1,0,2.05-2.14A2,2,0,0,0,19.06,34.05Z"/><path class="cls-3" d="M28.56,35.24v2.49H26.81V30.36H30c1.82,0,2.78,1,2.78,2.46s-1,2.42-2.77,2.42Zm0-3.28v1.71h1.38c.63,0,1-.29,1-.85s-.39-.86-1-.86Z"/><path class="cls-3" d="M39.43,35.24v2.49H37.67V30.36h3.16c1.82,0,2.78,1,2.78,2.46s-1,2.42-2.77,2.42Zm0-3.28v1.71H40.8c.63,0,1-.29,1-.85s-.39-.86-1-.86Z"/><path class="cls-3" d="M48.59,30.36c1.82,0,2.79.91,2.79,2.36a2.17,2.17,0,0,1-2.06,2.2l2.11,2.81H49.34L47.4,35h-.26v2.76H45.38V30.36ZM47.14,32v1.53h1.42c.64,0,1-.24,1-.77s-.4-.76-1-.76Z"/><path class="cls-3" d="M60.68,34.05a3.89,3.89,0,1,1-3.89-3.83A3.72,3.72,0,0,1,60.68,34.05Zm-5.94,0a2.06,2.06,0,1,0,2-2.14A2,2,0,0,0,54.74,34.05Z"/><path class="cls-3" d="M10.73,45.1a6.53,6.53,0,0,1,5.42-2.73c3.32,0,5.38,2.09,5.38,5.13,0,1.93-1,3.28-2.29,4.63l-3.39,3.53h6.07v2.87H11.43v-2.4L17,50.39a3.86,3.86,0,0,0,1.31-2.72,2.28,2.28,0,0,0-2.43-2.37A4.11,4.11,0,0,0,12.7,47Z"/><path class="cls-3" d="M37.59,50.59c0,5.14-3.06,8.22-6.85,8.22s-6.83-3.08-6.83-8.22,3-8.22,6.83-8.22S37.59,45.45,37.59,50.59Zm-10.5,0c0,3.47,1.62,5.28,3.65,5.28s3.65-1.81,3.65-5.28-1.61-5.28-3.65-5.28S27.09,47.12,27.09,50.59Z"/><path class="cls-3" d="M46.24,58.53H43.18V46.71l-3.8,1.55V45.17l6.86-2.77Z"/><path class="cls-3" d="M60,45.05,53.42,58.53H49.81l6.54-13H48.81V42.65H60Z"/><path class="cls-4" d="M36.33,11.64l1.45,4.48H42.5a.33.33,0,0,1,.19.6l-3.81,2.77L40.34,24a.33.33,0,0,1-.51.37L36,21.57,32.2,24.34a.33.33,0,0,1-.51-.37l1.46-4.48-3.82-2.77a.33.33,0,0,1,.2-.6h4.71l1.46-4.48A.33.33,0,0,1,36.33,11.64Z"/></svg>